<svg xmlns="http://www.w3.org/2000/svg" viewBox="0 0 159.57 26"><defs><style>.cls-1{fill:#040000;}</style></defs><title>tascam</title><g id="レイヤー_2" data-name="レイヤー 2"><g id="レイヤー_1-2" data-name="レイヤー 1"><g id="tascam_brand_logo_white" data-name="tascam brand logo white"><path id="Fill-1" class="cls-1" d="M51.83,16.92a12.13,12.13,0,0,0,12.08,4c1.73-.48,3.35-.94,3.9-2.29a2.81,2.81,0,0,0-.25-2.17,3,3,0,0,0-2-1.13c-5.28-1.13-11.83.31-15.67-4.32a6.67,6.67,0,0,1-.93-5.33C50,1.59,54.45.46,58.21.07A17.7,17.7,0,0,1,72.1,4.58L68.31,7.94c-3-3.25-7.79-3.56-11.86-2.54a3.65,3.65,0,0,0-1.86,1.41,1.4,1.4,0,0,0,.14,1.5c1,1,2.54.9,3.9,1.19,5.39.9,12.65-.06,14.68,6.32a7.2,7.2,0,0,1-1.47,6.61c-2.5,2.5-6,3.19-9.6,3.56-5.5.2-11.43-1-14.76-6Z"/><path id="Fill-3" class="cls-1" d="M101.82,7.32,96.88,9.1c-1.69-2.29-4.26-4.18-7.25-4.15a8.94,8.94,0,0,0-8.5,4.8,8,8,0,0,0,.48,7.54c2.09,3.27,6.1,4.29,9.68,3.53A9.62,9.62,0,0,0,97,16.72l5.2,1.58a14.68,14.68,0,0,1-13,7.59,13.63,13.63,0,0,1-12.65-6.6,12.73,12.73,0,0,1-.23-11.8C78.76,2.8,83.67.43,88.81.21a14.32,14.32,0,0,1,13,7.11"/><path id="Fill-5" class="cls-1" d="M15.24,5.87V25H9.17V5.87H0V.83H24.32v5Z"/><path id="Fill-8" class="cls-1" d="M31.72,14.9h5.37L33.48,7l-3.67,7.93h1.91v5.26H27.3L24.93,25H18.6L30.26.74h6.55L48,25H41.66l-2.17-4.81H31.72Z"/><path id="Fill-10" class="cls-1" d="M113.19,14.89H119l-3.54-8-3.81,8h1.51v5.15h-3.8l-2.4,5h-6.42L112.24.8h6.69L130.1,25.06H123.7l-2.8-5h-7.7Z"/><path id="Fill-12" class="cls-1" d="M131.09,25h5.58V9.5l6.28,15.38h4.62l6.35-15.21V25h5.65V.75h-7.48L145.31,17.3,138.47.72h-7.38Z"/></g></g></g></svg>